<?xml version="1.0" standalone="no"?>
<!DOCTYPE svg PUBLIC "-//W3C//DTD SVG 20010904//EN"
 "http://www.w3.org/TR/2001/REC-SVG-20010904/DTD/svg10.dtd">
<svg version="1.0" xmlns="http://www.w3.org/2000/svg"
 width="512.000000pt" height="512.000000pt" viewBox="0 0 512.000000 512.000000"
 preserveAspectRatio="xMidYMid meet">
<metadata>
Created by potrace 1.11, written by Peter Selinger 2001-2013
</metadata>
<g transform="translate(0.000000,512.000000) scale(0.100000,-0.100000)"
fill="#000000" stroke="none">
<path d="M378 4820 c-68 -12 -128 -48 -150 -92 -11 -20 -23 -65 -29 -100 -6
-40 -8 -830 -7 -2143 3 -1669 6 -2087 16 -2118 17 -48 71 -102 119 -119 52
-17 4325 -25 4418 -8 80 15 127 47 156 107 l24 48 3 2085 c2 1317 -1 2108 -7
2148 -15 98 -37 132 -106 167 l-60 30 -2165 1 c-1191 1 -2186 -2 -2212 -6z
m4111 -745 c3 -4 -68 -172 -742 -1760 -427 -1007 -387 -915 -404 -915 -7 0
-308 235 -669 522 -360 288 -675 538 -698 555 l-43 33 -134 -152 c-583 -664
-811 -924 -1037 -1180 -57 -65 -111 -118 -119 -118 -26 0 -83 41 -83 59 0 10
145 182 321 382 279 316 541 613 933 1057 55 62 105 111 113 110 7 -2 148
-111 314 -243 166 -132 470 -374 676 -538 206 -164 376 -297 377 -295 2 2 82
190 179 418 578 1363 888 2084 898 2091 10 6 106 -16 118 -26z"/>
</g>
</svg>
